<svg id="visual" viewBox="0 0 900 600" width="900" height="600" xmlns="http://www.w3.org/2000/svg" xmlns:xlink="http://www.w3.org/1999/xlink" version="1.1"><path d="M0 213L21.5 206.8C43 200.7 86 188.3 128.8 185.7C171.7 183 214.3 190 257.2 191.7C300 193.3 343 189.7 385.8 194.5C428.7 199.3 471.3 212.7 514.2 206.8C557 201 600 176 642.8 168.2C685.7 160.3 728.3 169.7 771.2 181.2C814 192.7 857 206.3 878.5 213.2L900 220L900 0L878.5 0C857 0 814 0 771.2 0C728.3 0 685.7 0 642.8 0C600 0 557 0 514.2 0C471.3 0 428.7 0 385.8 0C343 0 300 0 257.2 0C214.3 0 171.7 0 128.8 0C86 0 43 0 21.5 0L0 0Z" fill="#fcaf3c"></path><path d="M0 190L21.5 184.3C43 178.7 86 167.3 128.8 157.8C171.7 148.3 214.3 140.7 257.2 136.7C300 132.7 343 132.3 385.8 139.5C428.7 146.7 471.3 161.3 514.2 159.2C557 157 600 138 642.8 142C685.7 146 728.3 173 771.2 173C814 173 857 146 878.5 132.5L900 119L900 0L878.5 0C857 0 814 0 771.2 0C728.3 0 685.7 0 642.8 0C600 0 557 0 514.2 0C471.3 0 428.7 0 385.8 0C343 0 300 0 257.2 0C214.3 0 171.7 0 128.8 0C86 0 43 0 21.5 0L0 0Z" fill="#fd9621"></path><path d="M0 153L21.5 150.8C43 148.7 86 144.3 128.8 142.3C171.7 140.3 214.3 140.7 257.2 143.5C300 146.3 343 151.7 385.8 147.2C428.7 142.7 471.3 128.3 514.2 119C557 109.7 600 105.3 642.8 105.5C685.7 105.7 728.3 110.3 771.2 115.7C814 121 857 127 878.5 130L900 133L900 0L878.5 0C857 0 814 0 771.2 0C728.3 0 685.7 0 642.8 0C600 0 557 0 514.2 0C471.3 0 428.7 0 385.8 0C343 0 300 0 257.2 0C214.3 0 171.7 0 128.8 0C86 0 43 0 21.5 0L0 0Z" fill="#fe7a05"></path><path d="M0 116L21.5 114.3C43 112.7 86 109.3 128.8 102C171.7 94.7 214.3 83.3 257.2 80.2C300 77 343 82 385.8 84C428.7 86 471.3 85 514.2 88.5C557 92 600 100 642.8 100.3C685.7 100.7 728.3 93.3 771.2 89.2C814 85 857 84 878.5 83.5L900 83L900 0L878.5 0C857 0 814 0 771.2 0C728.3 0 685.7 0 642.8 0C600 0 557 0 514.2 0C471.3 0 428.7 0 385.8 0C343 0 300 0 257.2 0C214.3 0 171.7 0 128.8 0C86 0 43 0 21.5 0L0 0Z" fill="#ff5900"></path><path d="M0 46L21.5 43C43 40 86 34 128.8 30.7C171.7 27.3 214.3 26.7 257.2 28.8C300 31 343 36 385.8 40.5C428.7 45 471.3 49 514.2 50C557 51 600 49 642.8 51.8C685.7 54.7 728.3 62.3 771.2 66.5C814 70.7 857 71.3 878.5 71.7L900 72L900 0L878.5 0C857 0 814 0 771.2 0C728.3 0 685.7 0 642.8 0C600 0 557 0 514.2 0C471.3 0 428.7 0 385.8 0C343 0 300 0 257.2 0C214.3 0 171.7 0 128.8 0C86 0 43 0 21.5 0L0 0Z" fill="#ff2500"></path></svg>