<svg id="visual" viewBox="0 0 1200 240" width="1200" height="240" xmlns="http://www.w3.org/2000/svg" xmlns:xlink="http://www.w3.org/1999/xlink" version="1.1"><path d="M0 168L20 168C40 168 80 168 120 170.2C160 172.3 200 176.7 240 179.3C280 182 320 183 360 182.3C400 181.7 440 179.3 480 169.8C520 160.3 560 143.7 600 135.8C640 128 680 129 720 135.5C760 142 800 154 840 166.2C880 178.3 920 190.7 960 198.8C1000 207 1040 211 1080 212C1120 213 1160 211 1180 210L1200 209L1200 0L1180 0C1160 0 1120 0 1080 0C1040 0 1000 0 960 0C920 0 880 0 840 0C800 0 760 0 720 0C680 0 640 0 600 0C560 0 520 0 480 0C440 0 400 0 360 0C320 0 280 0 240 0C200 0 160 0 120 0C80 0 40 0 20 0L0 0Z" fill="#fcaf3c"></path><path d="M0 167L20 159.2C40 151.3 80 135.7 120 134C160 132.3 200 144.7 240 139C280 133.3 320 109.7 360 112.2C400 114.7 440 143.3 480 143.8C520 144.3 560 116.7 600 110.2C640 103.7 680 118.3 720 125.3C760 132.3 800 131.7 840 130.7C880 129.7 920 128.3 960 131.7C1000 135 1040 143 1080 146.3C1120 149.7 1160 148.3 1180 147.7L1200 147L1200 0L1180 0C1160 0 1120 0 1080 0C1040 0 1000 0 960 0C920 0 880 0 840 0C800 0 760 0 720 0C680 0 640 0 600 0C560 0 520 0 480 0C440 0 400 0 360 0C320 0 280 0 240 0C200 0 160 0 120 0C80 0 40 0 20 0L0 0Z" fill="#acb039"></path><path d="M0 51L20 54.8C40 58.7 80 66.3 120 68.3C160 70.3 200 66.7 240 63.3C280 60 320 57 360 65C400 73 440 92 480 95.7C520 99.3 560 87.7 600 84.8C640 82 680 88 720 85.5C760 83 800 72 840 77.3C880 82.7 920 104.3 960 109.3C1000 114.3 1040 102.7 1080 99C1120 95.3 1160 99.7 1180 101.8L1200 104L1200 0L1180 0C1160 0 1120 0 1080 0C1040 0 1000 0 960 0C920 0 880 0 840 0C800 0 760 0 720 0C680 0 640 0 600 0C560 0 520 0 480 0C440 0 400 0 360 0C320 0 280 0 240 0C200 0 160 0 120 0C80 0 40 0 20 0L0 0Z" fill="#61a656"></path><path d="M0 33L20 33.2C40 33.3 80 33.7 120 37.3C160 41 200 48 240 47.3C280 46.7 320 38.3 360 40.2C400 42 440 54 480 62C520 70 560 74 600 70.2C640 66.3 680 54.7 720 53.3C760 52 800 61 840 60.5C880 60 920 50 960 45.3C1000 40.7 1040 41.3 1080 44.8C1120 48.3 1160 54.7 1180 57.8L1200 61L1200 0L1180 0C1160 0 1120 0 1080 0C1040 0 1000 0 960 0C920 0 880 0 840 0C800 0 760 0 720 0C680 0 640 0 600 0C560 0 520 0 480 0C440 0 400 0 360 0C320 0 280 0 240 0C200 0 160 0 120 0C80 0 40 0 20 0L0 0Z" fill="#009473"></path></svg>