<svg id="visual" viewBox="0 0 1200 240" width="1200" height="240" xmlns="http://www.w3.org/2000/svg" xmlns:xlink="http://www.w3.org/1999/xlink" version="1.1"><path d="M0 137L33.3 133.3C66.7 129.7 133.3 122.3 200 119.5C266.7 116.7 333.3 118.3 400 114C466.7 109.7 533.3 99.3 600 106.7C666.7 114 733.3 139 800 147.2C866.7 155.3 933.3 146.7 1000 136.8C1066.7 127 1133.3 116 1166.7 110.5L1200 105L1200 241L1166.7 241C1133.3 241 1066.7 241 1000 241C933.3 241 866.7 241 800 241C733.3 241 666.7 241 600 241C533.3 241 466.7 241 400 241C333.3 241 266.7 241 200 241C133.3 241 66.7 241 33.3 241L0 241Z" fill="#fcaf3c"></path><path d="M0 178L33.3 173C66.7 168 133.3 158 200 158.8C266.7 159.7 333.3 171.3 400 176.7C466.7 182 533.3 181 600 174.8C666.7 168.7 733.3 157.3 800 149.5C866.7 141.7 933.3 137.3 1000 142.8C1066.7 148.3 1133.3 163.7 1166.7 171.3L1200 179L1200 241L1166.7 241C1133.3 241 1066.7 241 1000 241C933.3 241 866.7 241 800 241C733.3 241 666.7 241 600 241C533.3 241 466.7 241 400 241C333.3 241 266.7 241 200 241C133.3 241 66.7 241 33.3 241L0 241Z" fill="#fe7a05"></path><path d="M0 207L33.3 207C66.7 207 133.3 207 200 204.8C266.7 202.7 333.3 198.3 400 193.8C466.7 189.3 533.3 184.7 600 185.3C666.7 186 733.3 192 800 195.3C866.7 198.7 933.3 199.3 1000 196.3C1066.7 193.3 1133.3 186.7 1166.7 183.3L1200 180L1200 241L1166.7 241C1133.3 241 1066.7 241 1000 241C933.3 241 866.7 241 800 241C733.3 241 666.7 241 600 241C533.3 241 466.7 241 400 241C333.3 241 266.7 241 200 241C133.3 241 66.7 241 33.3 241L0 241Z" fill="#ff2500"></path></svg>